HIERARCHY
ROOT Hips
{
	OFFSET -3.958830 18.904000 13.208200
	CHANNELS 6 Xposition Yposition Zposition Zrotation Yrotation Xrotation 
	JOINT LHipJoint
	{
		OFFSET 0.000000 0.000000 0.000000
		CHANNELS 3 Zrotation Yrotation Xrotation
		JOINT LeftUpLeg
		{
			OFFSET 1.800000 -1.400000 0.085000
			CHANNELS 3 Zrotation Yrotation Xrotation
			JOINT LeftLeg
			{
				OFFSET 2.215000 -6.000000 0.000000
				CHANNELS 3 Zrotation Yrotation Xrotation
				JOINT LeftFoot
				{
					OFFSET 2.500000 -6.900000 0.000000
					CHANNELS 3 Zrotation Yrotation Xrotation
					JOINT LeftToeBase
					{
						OFFSET 0.200000 -0.500000 1.950000
						CHANNELS 3 Zrotation Yrotation Xrotation
						End Site
						{
							OFFSET 0.000000 0.000000 0.000000
						}
					}
				}
			}
		}
	}
	JOINT RHipJoint
	{
		OFFSET 0.000000 0.000000 0.000000
		CHANNELS 3 Zrotation Yrotation Xrotation
		JOINT RightUpLeg
		{
			OFFSET -1.800000 -1.400000 0.085000
			CHANNELS 3 Zrotation Yrotation Xrotation
			JOINT RightLeg
			{
				OFFSET -2.215000 -6.000000 0.000000
				CHANNELS 3 Zrotation Yrotation Xrotation
				JOINT RightFoot
				{
					OFFSET -2.500000 -6.900000 0.000000
					CHANNELS 3 Zrotation Yrotation Xrotation
					JOINT RightToeBase
					{
						OFFSET -0.200000 -0.500000 1.950000
						CHANNELS 3 Zrotation Yrotation Xrotation
						End Site
						{
							OFFSET 0.000000 0.000000 0.000000
						}
					}
				}
			}
		}
	}
	JOINT LowerBack
	{
		OFFSET 0.000000 0.000000 0.000000
		CHANNELS 3 Zrotation Yrotation Xrotation
		JOINT Spine
		{
			OFFSET -0.087000 1.940000 -0.288900
			CHANNELS 3 Zrotation Yrotation Xrotation
			JOINT Spine1
			{
				OFFSET 0.000000 1.950000 0.060000
				CHANNELS 3 Zrotation Yrotation Xrotation
				JOINT Neck
				{
					OFFSET 0.000000 0.000000 0.000000
					CHANNELS 3 Zrotation Yrotation Xrotation
					JOINT Neck1
					{
						OFFSET 0.000000 1.600000 0.340000
						CHANNELS 3 Zrotation Yrotation Xrotation
						JOINT Head
						{
							OFFSET 0.000000 1.667000 -0.240000
							CHANNELS 3 Zrotation Yrotation Xrotation
							End Site
							{
								OFFSET 0.000000 0.000000 0.000000
							}
						}
					}
				}
				JOINT LeftShoulder
				{
					OFFSET 0.000000 0.000000 0.000000
					CHANNELS 3 Zrotation Yrotation Xrotation
					JOINT LeftArm
					{
						OFFSET 2.700000 1.550000 -0.730000
						CHANNELS 3 Zrotation Yrotation Xrotation
						JOINT LeftForeArm
						{
							OFFSET 5.450000 0.000000 0.000000
							CHANNELS 3 Zrotation Yrotation Xrotation
							JOINT LeftHand
							{
								OFFSET 3.450000 0.000000 0.000000
								CHANNELS 3 Zrotation Yrotation Xrotation
								JOINT LeftHandIndex1
								{
									OFFSET 0.750000 0.000000 0.000000
									CHANNELS 3 Zrotation Yrotation Xrotation
									End Site
									{
										OFFSET 0.000000 0.000000 0.000000
									}
								}
							}
						}
					}
				}
				JOINT RightShoulder
				{
					OFFSET 0.000000 0.000000 0.000000
					CHANNELS 3 Zrotation Yrotation Xrotation
					JOINT RightArm
					{
						OFFSET -2.700000 1.550000 -0.730000
						CHANNELS 3 Zrotation Yrotation Xrotation
						JOINT RightForeArm
						{
							OFFSET -5.450000 0.000000 0.000000
							CHANNELS 3 Zrotation Yrotation Xrotation
							JOINT RightHand
							{
								OFFSET -3.450000 0.000000 0.000000
								CHANNELS 3 Zrotation Yrotation Xrotation
								JOINT RightHandIndex1
								{
									OFFSET -0.750000 0.000000 0.000000
									CHANNELS 3 Zrotation Yrotation Xrotation
									End Site
									{
										OFFSET 0.000000 0.000000 0.000000
									}
								}
							}
						}
					}
				}
			}
		}
	}
}
MOTION
Frames: 6
Frame Time: 0.016667
0.174820 17.559000 -0.999610 -3.139074 9.532356 0.711931 -15.060618 13.507306 2.917148 9.897375 -2.233686 -20.685883 -7.159193 7.059849 19.152402 -1.099598 5.021549 2.776869 -0.041740 -0.365020 0.067840 18.364756 -10.913714 2.270062 -5.350330 1.870277 -15.699259 3.362790 -5.266811 20.584349 0.174138 -3.740030 3.131047 0.146200 0.643100 -0.005490 -4.047715 -2.296823 -6.719467 12.638553 -1.156657 8.612382 -3.951676 0.295880 5.545154 -0.925901 -8.270688 -4.497182 -17.986470 17.459218 29.947238 -5.544370 14.812740 -2.656650 -15.874535 7.347198 -0.354096 -36.019331 -8.130209 -2.623990 88.500662 -45.280225 -44.386152 -4.189070 2.258358 0.434060 0.458290 -0.485780 -0.033040 16.356572 -2.843738 0.326977 34.678968 -1.247853 -13.092029 -44.154550 51.448164 -17.365780 1.483970 -1.213075 -0.728890 0.442980 0.404750 -0.360140 
0.171000 17.554820 -0.998620 -3.269974 9.487816 0.248761 -15.063587 13.533982 2.921662 10.234733 -2.205398 -20.652455 -7.203003 7.236903 19.818274 -1.091820 5.118577 2.725144 -0.011640 -0.333130 0.098740 18.358081 -10.912039 2.264430 -5.299520 1.828399 -15.337592 3.392825 -5.331932 20.896148 0.144070 -3.775802 3.107887 0.159990 0.611900 -0.002250 -4.033996 -2.352837 -6.742758 12.593804 -1.174805 8.995555 -3.530952 0.274663 5.930189 -1.156911 -8.268113 -4.651960 -18.300640 17.440028 30.650038 -5.711230 14.749920 -3.358670 -15.485420 6.841731 -0.317256 -33.996115 -8.264023 -2.688613 85.367487 -45.968340 -42.337895 -4.152279 2.244813 0.453400 0.436710 -0.458430 -0.033840 16.418579 -2.309114 0.493707 33.833296 -1.183183 -12.968656 -43.514429 50.870505 -16.919975 1.499413 -1.223812 -0.717800 0.440520 0.388500 -0.367400 
0.168440 17.550520 -0.996230 -3.382888 9.353667 -0.175101 -15.069001 13.559432 2.924961 10.541372 -2.179490 -20.642741 -7.206767 7.416921 20.532768 -1.083098 5.222159 2.670529 0.009850 -0.310000 0.121400 18.349515 -10.908536 2.259451 -5.296060 1.794467 -15.008016 3.482656 -5.412483 21.189571 0.118519 -3.817068 3.081504 0.169660 0.586050 0.002850 -4.011889 -2.407480 -6.762089 12.467731 -1.136692 9.292837 -3.033534 0.280689 6.355144 -1.381289 -8.242947 -4.824527 -18.540910 17.412246 31.309040 -5.868630 14.692130 -3.906410 -15.078483 6.293705 -0.253082 -31.936882 -8.199574 -2.822167 81.886985 -46.862905 -40.259763 -4.119169 2.234973 0.468240 0.419800 -0.436390 -0.037370 16.467168 -1.720966 0.688284 32.992324 -1.113392 -12.833844 -42.913176 50.207406 -16.473918 1.514933 -1.234887 -0.707580 0.435610 0.379260 -0.373380 
0.167430 17.545320 -0.992460 -3.508877 9.154092 -0.543945 -15.073303 13.574899 2.924287 10.834393 -2.154420 -20.652099 -7.179907 7.586617 21.226872 -1.078098 5.322407 2.616917 0.030610 -0.288640 0.146680 18.344189 -10.905795 2.255776 -5.289039 1.770858 -14.723201 3.599021 -5.492471 21.444956 0.096392 -3.857454 3.055281 0.180530 0.559850 0.007340 -3.994144 -2.440202 -6.773187 12.357039 -1.059503 9.457163 -2.559492 0.299422 6.856099 -1.576599 -8.181637 -4.984106 -18.644399 17.337077 31.906685 -6.103420 14.669710 -4.428020 -14.656155 5.725118 -0.201694 -29.791803 -8.017141 -2.982978 78.122926 -47.923210 -38.151446 -4.086700 2.229382 0.481190 0.405610 -0.416930 -0.042980 16.446663 -1.138826 0.897062 32.265497 -1.038247 -12.706826 -42.322749 49.521986 -16.049143 1.528328 -1.246533 -0.699500 0.429250 0.369890 -0.381950 
0.167850 17.539180 -0.987090 -3.583105 8.942412 -0.839040 -15.083170 13.590567 2.924912 11.055541 -2.142362 -20.699456 -7.133223 7.756082 21.940432 -1.076413 5.428626 2.564407 0.042300 -0.275790 0.162510 18.334715 -10.898600 2.248457 -5.327451 1.749722 -14.491239 3.706924 -5.566712 21.675964 0.082803 -3.897653 3.034060 0.189990 0.544410 0.009220 -3.961621 -2.483079 -6.776328 12.107394 -0.942752 9.489111 -1.981558 0.314287 7.378219 -1.787160 -8.097419 -5.125960 -18.652710 17.255075 32.392654 -6.311960 14.652650 -4.781500 -14.209325 5.147741 -0.146701 -27.583572 -7.670981 -3.156441 73.876060 -49.236712 -35.943156 -4.061269 2.225270 0.489030 0.400190 -0.407160 -0.049520 16.450422 -0.543808 1.107425 31.496544 -0.955333 -12.546780 -41.898958 48.766977 -15.676443 1.536502 -1.256212 -0.697370 0.427800 0.367650 -0.390290 
0.169700 17.532510 -0.980650 -3.647956 8.718163 -1.075311 -15.096456 13.605079 2.926462 11.244408 -2.137601 -20.787005 -7.064127 7.921401 22.650002 -1.077982 5.537541 2.516677 0.047930 -0.269470 0.173840 18.323131 -10.888180 2.239782 -5.357212 1.741220 -14.327283 3.786507 -5.634230 21.943686 0.076130 -3.938532 3.019237 0.198280 0.539630 0.006090 -3.920445 -2.529791 -6.774739 11.784969 -0.794801 9.427851 -1.336447 0.327850 7.880608 -1.998835 -7.987091 -5.237554 -18.558691 17.139619 32.787141 -6.467150 14.618200 -4.988210 -13.759260 4.591081 -0.115647 -25.351455 -7.223391 -3.305806 69.157052 -50.753892 -33.617166 -4.041306 2.225368 0.494030 0.401840 -0.406130 -0.055580 16.463162 0.020101 1.317017 30.669779 -0.918033 -12.363968 -41.436350 48.033781 -15.293003 1.540742 -1.263564 -0.702440 0.433800 0.368180 -0.398480 
